<svg width="93" height="56" viewBox="0 0 93 56" fill="none" xmlns="http://www.w3.org/2000/svg">
<rect x="0.5" y="0.5" width="92" height="55" stroke="#05AB75"/>
<path d="M35.1698 45V24.168H23.7938V45H21.2978V24.168H17.1698V22.44H21.2978V19.56C21.2978 16.552 22.0178 14.328 23.4578 12.888C24.9298 11.416 26.9298 10.68 29.4578 10.68C30.4818 10.68 31.5698 10.808 32.7218 11.064C33.9058 11.288 34.9458 11.608 35.8418 12.024L35.3138 13.848C34.4818 13.496 33.5858 13.224 32.6258 13.032C31.6658 12.808 30.8178 12.696 30.0818 12.696C27.9698 12.696 26.3858 13.256 25.3298 14.376C24.3058 15.464 23.7938 17.352 23.7938 20.04V22.44H37.6658V45H35.1698ZM47.0581 45H44.5621V22.44H46.3861L46.7701 25.56C47.8581 24.536 49.0261 23.72 50.2741 23.112C51.5541 22.472 52.9941 22.152 54.5941 22.152C56.8981 22.152 58.6901 22.792 59.9701 24.072C61.2821 25.352 61.9381 27.144 61.9381 29.448V45H59.4421V30.072C59.4421 29.24 59.3461 28.472 59.1541 27.768C58.9941 27.032 58.6901 26.408 58.2421 25.896C57.8261 25.352 57.2501 24.936 56.5141 24.648C55.8101 24.328 54.9301 24.168 53.8741 24.168C52.6581 24.168 51.4421 24.488 50.2261 25.128C49.0421 25.736 47.9861 26.568 47.0581 27.624V45ZM69.4103 45V22.44H71.9063V45H69.4103ZM70.7063 16.632C70.1943 16.632 69.7463 16.472 69.3623 16.152C69.0103 15.8 68.8343 15.32 68.8343 14.712C68.8343 14.072 69.0103 13.576 69.3623 13.224C69.7143 12.872 70.1463 12.696 70.6583 12.696C71.1383 12.696 71.5543 12.872 71.9063 13.224C72.2903 13.544 72.4823 14.04 72.4823 14.712C72.4823 15.352 72.3063 15.832 71.9543 16.152C71.6023 16.472 71.1863 16.632 70.7063 16.632Z" fill="#05AB75"/>
</svg>
