<svg width="15" height="9" viewBox="0 0 15 9" fill="none" xmlns="http://www.w3.org/2000/svg">
<path d="M4.728 9V3.792H1.884V9H1.26V3.792H0.228V3.36H1.26V2.64C1.26 1.888 1.44 1.332 1.8 0.972C2.168 0.604 2.668 0.42 3.3 0.42C3.556 0.42 3.828 0.452 4.116 0.516C4.412 0.572 4.672 0.651999 4.896 0.756L4.764 1.212C4.556 1.124 4.332 1.056 4.092 1.008C3.852 0.952 3.64 0.924 3.456 0.924C2.928 0.924 2.532 1.064 2.268 1.344C2.012 1.616 1.884 2.088 1.884 2.76V3.36H5.352V9H4.728ZM7.70006 9H7.07606V3.36H7.53206L7.62806 4.14C7.90006 3.884 8.19206 3.68 8.50406 3.528C8.82406 3.368 9.18406 3.288 9.58406 3.288C10.1601 3.288 10.6081 3.448 10.9281 3.768C11.2561 4.088 11.4201 4.536 11.4201 5.112V9H10.7961V5.268C10.7961 5.06 10.7721 4.868 10.7241 4.692C10.6841 4.508 10.6081 4.352 10.4961 4.224C10.3921 4.088 10.2481 3.984 10.0641 3.912C9.88806 3.832 9.66806 3.792 9.40406 3.792C9.10006 3.792 8.79606 3.872 8.49206 4.032C8.19606 4.184 7.93206 4.392 7.70006 4.656V9ZM13.2881 9V3.36H13.9121V9H13.2881ZM13.6121 1.908C13.4841 1.908 13.3721 1.868 13.2761 1.788C13.1881 1.7 13.1441 1.58 13.1441 1.428C13.1441 1.268 13.1881 1.144 13.2761 1.056C13.3641 0.967999 13.4721 0.924 13.6001 0.924C13.7201 0.924 13.8241 0.967999 13.9121 1.056C14.0081 1.136 14.0561 1.26 14.0561 1.428C14.0561 1.588 14.0121 1.708 13.9241 1.788C13.8361 1.868 13.7321 1.908 13.6121 1.908Z" fill="#05AB75"/>
</svg>
