<svg width="93" height="56" viewBox="0 0 93 56" fill="none" xmlns="http://www.w3.org/2000/svg">
<rect x="0.5" y="0.5" width="92" height="55" stroke="#05AB75"/>
<path d="M35.2373 42V21.168H23.8613V42H21.3653V21.168H17.2373V19.44H21.3653V16.56C21.3653 13.552 22.0853 11.328 23.5253 9.888C24.9973 8.416 26.9973 7.68 29.5253 7.68C30.5493 7.68 31.6373 7.808 32.7893 8.064C33.9733 8.288 35.0133 8.608 35.9093 9.024L35.3813 10.848C34.5493 10.496 33.6533 10.224 32.6933 10.032C31.7333 9.808 30.8853 9.696 30.1493 9.696C28.0373 9.696 26.4533 10.256 25.3973 11.376C24.3733 12.464 23.8613 14.352 23.8613 17.04V19.44H37.7333V42H35.2373ZM47.1255 42H44.6295V19.44H46.4535L46.8375 22.56C47.9255 21.536 49.0935 20.72 50.3415 20.112C51.6215 19.472 53.0615 19.152 54.6615 19.152C56.9655 19.152 58.7575 19.792 60.0375 21.072C61.3495 22.352 62.0055 24.144 62.0055 26.448V42H59.5095V27.072C59.5095 26.24 59.4135 25.472 59.2215 24.768C59.0615 24.032 58.7575 23.408 58.3095 22.896C57.8935 22.352 57.3175 21.936 56.5815 21.648C55.8775 21.328 54.9975 21.168 53.9415 21.168C52.7255 21.168 51.5095 21.488 50.2935 22.128C49.1095 22.736 48.0535 23.568 47.1255 24.624V42ZM69.4778 42V19.44H71.9738V42H69.4778ZM70.7738 13.632C70.2618 13.632 69.8138 13.472 69.4298 13.152C69.0778 12.8 68.9018 12.32 68.9018 11.712C68.9018 11.072 69.0778 10.576 69.4298 10.224C69.7818 9.872 70.2138 9.696 70.7258 9.696C71.2058 9.696 71.6218 9.872 71.9738 10.224C72.3578 10.544 72.5498 11.04 72.5498 11.712C72.5498 12.352 72.3738 12.832 72.0218 13.152C71.6698 13.472 71.2538 13.632 70.7738 13.632Z" fill="#05AB75"/>
</svg>
