<svg width="120" height="73" viewBox="0 0 120 73" fill="none" xmlns="http://www.w3.org/2000/svg">
<rect x="0.5" y="0.5" width="119" height="71.2581" stroke="#05AB75"/>
<path d="M46.2684 57.7419V32.5699H32.5224V57.7419H29.5064V32.5699H24.5184V30.4819H29.5064V27.0019C29.5064 23.3673 30.3764 20.6799 32.1164 18.9399C33.895 17.1613 36.3117 16.2719 39.3664 16.2719C40.6037 16.2719 41.9184 16.4266 43.3104 16.7359C44.741 17.0066 45.9977 17.3933 47.0804 17.8959L46.4424 20.0999C45.437 19.6746 44.3544 19.3459 43.1944 19.1139C42.0344 18.8433 41.0097 18.7079 40.1204 18.7079C37.5684 18.7079 35.6544 19.3846 34.3784 20.7379C33.141 22.0526 32.5224 24.3339 32.5224 27.5819V30.4819H49.2844V57.7419H46.2684ZM60.6333 57.7419H57.6173V30.4819H59.8213L60.2853 34.2519C61.6 33.0146 63.0113 32.0286 64.5193 31.2939C66.066 30.5206 67.806 30.1339 69.7393 30.1339C72.5233 30.1339 74.6887 30.9073 76.2353 32.4539C77.8207 34.0006 78.6133 36.1659 78.6133 38.9499V57.7419H75.5973V39.7039C75.5973 38.6986 75.4813 37.7706 75.2493 36.9199C75.056 36.0306 74.6887 35.2766 74.1473 34.6579C73.6447 34.0006 72.9487 33.4979 72.0593 33.1499C71.2087 32.7633 70.1453 32.5699 68.8693 32.5699C67.4 32.5699 65.9307 32.9566 64.4613 33.7299C63.0307 34.4646 61.7547 35.4699 60.6333 36.7459V57.7419ZM87.6423 57.7419V30.4819H90.6583V57.7419H87.6423ZM89.2083 23.4639C88.5896 23.4639 88.0483 23.2706 87.5843 22.8839C87.159 22.4586 86.9463 21.8786 86.9463 21.1439C86.9463 20.3706 87.159 19.7713 87.5843 19.3459C88.0096 18.9206 88.5316 18.7079 89.1503 18.7079C89.7303 18.7079 90.233 18.9206 90.6583 19.3459C91.1223 19.7326 91.3543 20.3319 91.3543 21.1439C91.3543 21.9173 91.1416 22.4973 90.7163 22.8839C90.291 23.2706 89.7883 23.4639 89.2083 23.4639Z" fill="#05AB75"/>
</svg>
