<svg width="15" height="9" viewBox="0 0 15 9" fill="none" xmlns="http://www.w3.org/2000/svg">
<path d="M4.608 9V3.972H1.992V9H1.152V3.972H0.228V3.36H1.152V2.688C1.152 1.968 1.348 1.412 1.74 1.02C2.14 0.62 2.68 0.42 3.36 0.42C3.6 0.42 3.864 0.452 4.152 0.516C4.44 0.579999 4.688 0.659999 4.896 0.756L4.716 1.356C4.532 1.276 4.332 1.216 4.116 1.176C3.908 1.128 3.72 1.104 3.552 1.104C3.032 1.104 2.64 1.232 2.376 1.488C2.12 1.736 1.992 2.172 1.992 2.796V3.36H5.448V9H4.608ZM7.92666 9H7.08666V3.36H7.72266L7.85466 4.14C8.13466 3.876 8.42666 3.668 8.73066 3.516C9.04266 3.364 9.39866 3.288 9.79866 3.288C10.3747 3.288 10.8267 3.448 11.1547 3.768C11.4827 4.088 11.6467 4.536 11.6467 5.112V9H10.8067V5.268C10.8067 4.892 10.7107 4.584 10.5187 4.344C10.3267 4.096 10.0067 3.972 9.55866 3.972C9.27866 3.972 8.99466 4.044 8.70666 4.188C8.41866 4.324 8.15866 4.52 7.92666 4.776V9ZM13.4876 9V3.36H14.3276V9H13.4876ZM13.9076 1.908C13.7476 1.908 13.6116 1.856 13.4996 1.752C13.3956 1.648 13.3436 1.512 13.3436 1.344C13.3436 1.176 13.3956 1.04 13.4996 0.935999C13.6116 0.823999 13.7476 0.767999 13.9076 0.767999C14.0516 0.767999 14.1796 0.819999 14.2916 0.924C14.4116 1.028 14.4716 1.168 14.4716 1.344C14.4716 1.52 14.4156 1.66 14.3036 1.764C14.1916 1.86 14.0596 1.908 13.9076 1.908Z" fill="#05AB75"/>
</svg>
