<svg width="23" height="14" viewBox="0 0 23 14" fill="none" xmlns="http://www.w3.org/2000/svg">
<path d="M8.728 11V5.792H5.884V11H5.26V5.792H4.228V5.36H5.26V4.64C5.26 3.888 5.44 3.332 5.8 2.972C6.168 2.604 6.668 2.42 7.3 2.42C7.556 2.42 7.828 2.452 8.116 2.516C8.412 2.572 8.672 2.652 8.896 2.756L8.764 3.212C8.556 3.124 8.332 3.056 8.092 3.008C7.852 2.952 7.64 2.924 7.456 2.924C6.928 2.924 6.532 3.064 6.268 3.344C6.012 3.616 5.884 4.088 5.884 4.76V5.36H9.352V11H8.728ZM11.7001 11H11.0761V5.36H11.5321L11.6281 6.14C11.9001 5.884 12.1921 5.68 12.5041 5.528C12.8241 5.368 13.1841 5.288 13.5841 5.288C14.1601 5.288 14.6081 5.448 14.9281 5.768C15.2561 6.088 15.4201 6.536 15.4201 7.112V11H14.7961V7.268C14.7961 7.06 14.7721 6.868 14.7241 6.692C14.6841 6.508 14.6081 6.352 14.4961 6.224C14.3921 6.088 14.2481 5.984 14.0641 5.912C13.8881 5.832 13.6681 5.792 13.4041 5.792C13.1001 5.792 12.7961 5.872 12.4921 6.032C12.1961 6.184 11.9321 6.392 11.7001 6.656V11ZM17.2881 11V5.36H17.9121V11H17.2881ZM17.6121 3.908C17.4841 3.908 17.3721 3.868 17.2761 3.788C17.1881 3.7 17.1441 3.58 17.1441 3.428C17.1441 3.268 17.1881 3.144 17.2761 3.056C17.3641 2.968 17.4721 2.924 17.6001 2.924C17.7201 2.924 17.8241 2.968 17.9121 3.056C18.0081 3.136 18.0561 3.26 18.0561 3.428C18.0561 3.588 18.0121 3.708 17.9241 3.788C17.8361 3.868 17.7321 3.908 17.6121 3.908Z" fill="#05AB75"/>
<rect x="0.2" y="0.2" width="22.6" height="13.6" stroke="#05AB75" stroke-width="0.4"/>
</svg>
